REM DIRINDEX 1\2,1\3,1\4,1\6,1\5\7,1\5\8
REM DIRNAME cjc114,folder01,folder02,folder03,folder04,folder05,folder06,folder07
TITLE ""
FILE "DB4500_5th_2A_46.mp3" MP3
  TRACK 01 AUDIO
    TITLE "0:"
    INDEX 01 00:00:00
  TRACK 02 AUDIO
    TITLE "2:cjc114_1515"
    INDEX 01 00:00:03
  TRACK 03 AUDIO
    TITLE "0:"
    INDEX 01 00:01:13
  TRACK 04 AUDIO
    TITLE "3:cjc114_1516"
    INDEX 01 00:01:42
  TRACK 05 AUDIO
    TITLE "0:"
    INDEX 01 00:02:45
  TRACK 06 AUDIO
    TITLE "4:cjc114_1517"
    INDEX 01 00:02:71
  TRACK 07 AUDIO
    TITLE "0:"
    INDEX 01 00:05:63
  TRACK 08 AUDIO
    TITLE "2:cjc114_1518"
    INDEX 01 00:06:39
  TRACK 09 AUDIO
    TITLE "0:"
    INDEX 01 00:07:37
  TRACK 10 AUDIO
    TITLE "3:cjc114_1519"
    INDEX 01 00:07:64
  TRACK 11 AUDIO
    TITLE "0:"
    INDEX 01 00:08:72
  TRACK 12 AUDIO
    TITLE "4:cjc114_1520"
    INDEX 01 00:09:20
  TRACK 13 AUDIO
    TITLE "0:"
    INDEX 01 00:12:69
  TRACK 14 AUDIO
    TITLE "2:cjc114_1521"
    INDEX 01 00:13:45
  TRACK 15 AUDIO
    TITLE "0:"
    INDEX 01 00:14:62
  TRACK 16 AUDIO
    TITLE "3:cjc114_1522"
    INDEX 01 00:15:17
  TRACK 17 AUDIO
    TITLE "0:"
    INDEX 01 00:16:51
  TRACK 18 AUDIO
    TITLE "4:cjc114_1523"
    INDEX 01 00:17:04
  TRACK 19 AUDIO
    TITLE "0:"
    INDEX 01 00:20:55
  TRACK 20 AUDIO
    TITLE "2:cjc114_1524"
    INDEX 01 00:21:31
  TRACK 21 AUDIO
    TITLE "0:"
    INDEX 01 00:22:34
  TRACK 22 AUDIO
    TITLE "3:cjc114_1525"
    INDEX 01 00:22:64
  TRACK 23 AUDIO
    TITLE "0:"
    INDEX 01 00:24:24
  TRACK 24 AUDIO
    TITLE "4:cjc114_1526"
    INDEX 01 00:24:49
  TRACK 25 AUDIO
    TITLE "0:"
    INDEX 01 00:28:06
  TRACK 26 AUDIO
    TITLE "2:cjc114_1527"
    INDEX 01 00:28:57
  TRACK 27 AUDIO
    TITLE "0:"
    INDEX 01 00:29:64
  TRACK 28 AUDIO
    TITLE "3:cjc114_1528"
    INDEX 01 00:30:16
  TRACK 29 AUDIO
    TITLE "0:"
    INDEX 01 00:31:61
  TRACK 30 AUDIO
    TITLE "4:cjc114_1529"
    INDEX 01 00:32:13
  TRACK 31 AUDIO
    TITLE "0:"
    INDEX 01 00:34:67
  TRACK 32 AUDIO
    TITLE "2:cjc114_1530"
    INDEX 01 00:35:45
  TRACK 33 AUDIO
    TITLE "0:"
    INDEX 01 00:36:64
  TRACK 34 AUDIO
    TITLE "3:cjc114_1531"
    INDEX 01 00:37:16
  TRACK 35 AUDIO
    TITLE "0:"
    INDEX 01 00:39:11
  TRACK 36 AUDIO
    TITLE "4:cjc114_1532"
    INDEX 01 00:39:39
  TRACK 37 AUDIO
    TITLE "0:"
    INDEX 01 00:42:55
  TRACK 38 AUDIO
    TITLE "2:cjc114_1533"
    INDEX 01 00:43:39
  TRACK 39 AUDIO
    TITLE "0:"
    INDEX 01 00:44:42
  TRACK 40 AUDIO
    TITLE "3:cjc114_1534"
    INDEX 01 00:44:71
  TRACK 41 AUDIO
    TITLE "0:"
    INDEX 01 00:46:33
  TRACK 42 AUDIO
    TITLE "4:cjc114_1535"
    INDEX 01 00:46:62
  TRACK 43 AUDIO
    TITLE "0:"
    INDEX 01 00:49:65
  TRACK 44 AUDIO
    TITLE "2:cjc114_1536"
    INDEX 01 00:50:46
  TRACK 45 AUDIO
    TITLE "0:"
    INDEX 01 00:51:48
  TRACK 46 AUDIO
    TITLE "3:cjc114_1537"
    INDEX 01 00:52:02
  TRACK 47 AUDIO
    TITLE "0:"
    INDEX 01 00:53:58
  TRACK 48 AUDIO
    TITLE "4:cjc114_1538"
    INDEX 01 00:54:11
  TRACK 49 AUDIO
    TITLE "0:"
    INDEX 01 00:57:01
  TRACK 50 AUDIO
    TITLE "2:cjc114_1539"
    INDEX 01 00:57:54
  TRACK 51 AUDIO
    TITLE "0:"
    INDEX 01 00:59:02
  TRACK 52 AUDIO
    TITLE "3:cjc114_1540"
    INDEX 01 00:59:30
  TRACK 53 AUDIO
    TITLE "0:"
    INDEX 01 01:00:51
  TRACK 54 AUDIO
    TITLE "4:cjc114_1541"
    INDEX 01 01:01:03
  TRACK 55 AUDIO
    TITLE "0:"
    INDEX 01 01:04:05
  TRACK 56 AUDIO
    TITLE "2:cjc114_1542"
    INDEX 01 01:04:58
  TRACK 57 AUDIO
    TITLE "0:"
    INDEX 01 01:05:68
  TRACK 58 AUDIO
    TITLE "3:cjc114_1543"
    INDEX 01 01:06:22
  TRACK 59 AUDIO
    TITLE "0:"
    INDEX 01 01:07:68
  TRACK 60 AUDIO
    TITLE "4:cjc114_1544"
    INDEX 01 01:08:21
  TRACK 61 AUDIO
    TITLE "0:"
    INDEX 01 01:11:03
  TRACK 62 AUDIO
    TITLE "2:cjc114_1545"
    INDEX 01 01:11:58
  TRACK 63 AUDIO
    TITLE "0:"
    INDEX 01 01:12:62
  TRACK 64 AUDIO
    TITLE "3:cjc114_1546"
    INDEX 01 01:13:14
  TRACK 65 AUDIO
    TITLE "0:"
    INDEX 01 01:14:61
  TRACK 66 AUDIO
    TITLE "4:cjc114_1547"
    INDEX 01 01:15:13
  TRACK 67 AUDIO
    TITLE "0:"
    INDEX 01 01:17:00
  TRACK 68 AUDIO
    TITLE "2:cjc114_1548"
    INDEX 01 01:17:53
  TRACK 69 AUDIO
    TITLE "0:"
    INDEX 01 01:18:64
  TRACK 70 AUDIO
    TITLE "3:cjc114_1549"
    INDEX 01 01:19:19
  TRACK 71 AUDIO
    TITLE "0:"
    INDEX 01 01:20:44
  TRACK 72 AUDIO
    TITLE "4:cjc114_1550"
    INDEX 01 01:20:71
  TRACK 73 AUDIO
    TITLE "0:"
    INDEX 01 01:23:15
  TRACK 74 AUDIO
    TITLE "2:cjc114_1551"
    INDEX 01 01:23:69
  TRACK 75 AUDIO
    TITLE "0:"
    INDEX 01 01:24:73
  TRACK 76 AUDIO
    TITLE "3:cjc114_1552"
    INDEX 01 01:25:27
  TRACK 77 AUDIO
    TITLE "0:"
    INDEX 01 01:26:62
  TRACK 78 AUDIO
    TITLE "4:cjc114_1553"
    INDEX 01 01:27:16
  TRACK 79 AUDIO
    TITLE "0:"
    INDEX 01 01:29:33
